<?xml version="1.0" encoding="utf-8"?>
<svg xmlns="http://www.w3.org/2000/svg" width="204" height="78" viewBox="0 0 204 78" fill="none">
<path fill-rule="evenodd" clip-rule="evenodd" d="M80.1563 23.2138C80.1642 27.5268 81.4503 31.7407 83.8523 35.3233C86.2543 38.9059 89.6643 41.6964 93.6517 43.3423C97.639 44.9883 102.025 45.4159 106.255 44.5711C110.485 43.7262 114.37 41.6469 117.419 38.5957C120.468 35.5446 122.544 31.6584 123.385 27.4282C124.226 23.1979 123.795 18.8133 122.145 14.8282C120.495 10.8431 117.701 7.4363 114.115 5.03805C110.53 2.6398 106.314 1.35772 102 1.35376C99.13 1.35376 96.2878 1.91933 93.6363 3.01814C90.9848 4.11695 88.5758 5.72747 86.5471 7.75762C84.5185 9.78777 82.9099 12.1977 81.8133 14.8498C80.7167 17.5019 80.1536 20.344 80.1563 23.2138Z" fill="url(#paint0_radial_685_2660)"/>
<path d="M102 0.212891C97.4505 0.212891 93.0029 1.56182 89.2199 4.08909C85.4368 6.61636 82.4883 10.2085 80.7472 14.4112C79.0061 18.6139 78.5505 23.2384 79.4381 27.7C80.3257 32.1615 82.5167 36.2597 85.7339 39.4763C88.9511 42.6929 93.05 44.8835 97.5124 45.7709C101.975 46.6584 106.6 46.2029 110.804 44.4621C115.007 42.7213 118.6 39.7733 121.128 35.991C123.655 32.2087 125.005 27.7619 125.005 23.2129C125.005 17.1129 122.581 11.2628 118.267 6.94943C113.953 2.6361 108.101 0.212891 102 0.212891ZM102 43.8529C97.2315 43.842 92.6129 42.1839 88.9265 39.1592C85.24 36.1346 82.7121 31.9293 81.7707 27.2551C80.8294 22.581 81.5324 17.7252 83.7607 13.5097C85.9891 9.29432 89.6059 5.97825 93.9989 4.12289C99.0072 2.22132 104.558 2.33679 109.483 4.44499C114.408 6.55319 118.322 10.4896 120.403 15.4256C122.483 20.3616 122.567 25.9121 120.636 30.9085C118.705 35.9048 114.911 39.9574 110.052 42.2129C107.52 43.2826 104.799 43.8335 102.05 43.8329L102 43.8529Z" fill="#45B0E0"/>
<path fill-rule="evenodd" clip-rule="evenodd" d="M102 3.18384L107.701 14.7338L120.444 16.5838L111.222 25.5738L113.402 38.2738L102 32.2738L90.5982 38.2738L92.7686 25.5738L83.5469 16.5838L96.2992 14.7338L102 3.18384Z" fill="url(#paint1_radial_685_2660)"/>
<path d="M8.03214 66.1964H17.189V77.3674H9.44242C8.01317 77.4155 6.58455 77.2549 5.20164 76.8907C4.41129 76.6411 3.67894 76.2357 3.04782 75.6985C2.4167 75.1613 1.89957 74.5031 1.52697 73.7629C0.619261 71.943 0.175729 69.9271 0.235862 67.8944C0.235862 63.8828 1.33495 61.119 3.53314 59.6031C4.85735 58.6763 6.88339 58.2129 9.61126 58.2129H17.1791V61.0925H9.94893C8.97702 61.0509 8.0047 61.1648 7.06878 61.4301C5.08247 62.1384 4.08931 64.0516 4.08931 67.1695C3.97433 68.9568 4.31611 70.744 5.08247 72.3628C5.52769 73.2119 6.28103 73.8585 7.18796 74.17C8.10716 74.4153 9.05777 74.5224 10.0085 74.4877H13.6534V69.076H8.03214V66.1964Z" fill="white"/>
<path d="M23.9031 77.3674H20.6455V58.2129H23.9031V77.3674Z" fill="white"/>
<path d="M34.2309 63.2067C35.2282 63.1396 36.2281 63.2905 37.1611 63.6489C38.0941 64.0073 38.9379 64.5646 39.6337 65.282C40.8483 66.7426 41.4656 68.6084 41.3618 70.505C41.4084 71.4523 41.2606 72.399 40.9275 73.287C40.5945 74.175 40.0832 74.9855 39.4251 75.6685C38.7039 76.3248 37.859 76.8306 36.9398 77.1562C36.0206 77.4819 35.0456 77.6209 34.072 77.5651C33.0657 77.6345 32.056 77.4938 31.107 77.1519C30.1581 76.81 29.2907 76.2744 28.56 75.5791C27.3459 74.1936 26.7315 72.3829 26.8518 70.5448C26.8005 69.5763 26.9417 68.6073 27.2673 67.6937C27.5929 66.7802 28.0964 65.9402 28.7487 65.2224C29.4738 64.5262 30.3352 63.9876 31.2787 63.6407C32.2223 63.2938 33.2274 63.146 34.2309 63.2067ZM34.0025 65.8182C33.3593 65.7679 32.715 65.9019 32.1452 66.2043C31.5753 66.5068 31.1034 66.9653 30.7847 67.5261C30.3306 68.451 30.1187 69.476 30.1689 70.505C30.1074 71.5507 30.3673 72.5902 30.9138 73.484C31.2812 73.9689 31.7651 74.3533 32.3206 74.6016C32.8762 74.8498 33.4854 74.9538 34.0919 74.9039C34.6494 74.9386 35.2076 74.8458 35.7239 74.6324C36.2402 74.419 36.701 74.0908 37.0713 73.6726C37.7376 72.7341 38.0571 71.5934 37.9751 70.4455C38.0382 69.2429 37.6878 68.055 36.982 67.0793C36.6184 66.6509 36.1596 66.3137 35.6421 66.0947C35.1247 65.8757 34.5631 65.781 34.0025 65.8182Z" fill="white"/>
<path d="M47.5398 63.3962H51.2145C52.3254 63.3524 53.4337 63.5348 54.472 63.9324C55.6588 64.4552 56.6054 65.4051 57.1237 66.5936C57.6166 67.7023 57.8607 68.9055 57.8388 70.1187C57.9132 71.1868 57.7515 72.2583 57.3653 73.2571C56.9792 74.2558 56.3779 75.1574 55.6042 75.8978C54.8396 76.5912 53.8914 77.0497 52.873 77.2184C51.9747 77.3406 51.0682 77.3937 50.1617 77.3773H44.2822V58.2129H47.5398V63.3962ZM47.5398 65.9581V74.8055H50.6086C51.1806 74.8709 51.7599 74.7894 52.2916 74.5688C52.8234 74.3481 53.2901 73.9956 53.6477 73.5444C54.2391 72.5717 54.5261 71.4444 54.472 70.3073C54.5327 69.6851 54.4701 69.0569 54.2877 68.4589C54.1054 67.8608 53.8069 67.3046 53.4093 66.822C52.6484 66.1933 51.6719 65.8869 50.6881 65.968L47.5398 65.9581Z" fill="white"/>
<path d="M70.3127 68.8586C70.3738 68.137 70.2364 67.4125 69.9155 66.7634C69.7512 66.5463 69.5418 66.3674 69.3018 66.2388C69.0618 66.1103 68.7968 66.0352 68.525 66.0187C68.1063 65.9729 67.6848 65.9563 67.2637 65.969H60.7089V63.3972H67.5915C68.7493 63.3502 69.9077 63.4774 71.0278 63.7745C71.5725 63.9545 72.063 64.2692 72.4536 64.6893C72.8442 65.1093 73.1224 65.6213 73.2624 66.1775C73.4926 67.0823 73.5962 68.0147 73.5703 68.9479V77.3485H66.0322C65.127 77.3703 64.2214 77.3338 63.3209 77.2393C62.7641 77.1735 62.2291 76.9843 61.7549 76.6854C61.2806 76.3865 60.8792 75.9854 60.5798 75.5115C60.1587 74.8036 59.9453 73.9915 59.964 73.1681C59.9552 72.1939 60.2541 71.2417 60.8181 70.4473C61.1119 70.0529 61.4824 69.7221 61.9074 69.4746C62.3324 69.2272 62.8031 69.0683 63.2911 69.0075C64.0212 68.903 64.7585 68.8565 65.4959 68.8685L70.3127 68.8586ZM70.3127 71.4204H65.7839C65.2676 71.3921 64.7503 71.4525 64.2545 71.5992C63.9558 71.7231 63.7063 71.9421 63.5448 72.2221C63.3832 72.5022 63.3184 72.8277 63.3606 73.1482C63.3318 73.4182 63.3811 73.6908 63.5026 73.9337C63.624 74.1766 63.8126 74.3795 64.0459 74.5185C64.5943 74.7506 65.19 74.8493 65.7839 74.8065H70.3524L70.3127 71.4204Z" fill="white"/>
<path d="M80.5427 77.3674H77.2852V58.2129H80.5427V77.3674Z" fill="white"/>
<path d="M98.5595 58.2129V61.0925H93.0574C92.3423 61.081 91.6276 61.1342 90.9221 61.2514C90.4116 61.3457 89.9211 61.5271 89.4721 61.7876C88.8154 62.1496 88.2929 62.7138 87.9823 63.3962C87.6153 64.3476 87.417 65.3557 87.3964 66.3751H98.5595V69.2548H87.3964C87.3733 70.477 87.7194 71.6779 88.3895 72.7004C89.2039 73.9251 90.7698 74.5374 93.0872 74.5374H98.5595V77.417H92.68C91.3834 77.4331 90.0896 77.2931 88.8265 77C87.774 76.7247 86.8063 76.1922 86.0106 75.4504C85.2149 74.7086 84.616 73.7806 84.2679 72.75C83.6872 71.2195 83.4106 69.5904 83.4536 67.954C83.4536 64.419 84.4964 61.738 86.582 59.9109C87.432 59.1823 88.4601 58.6923 89.5615 58.4909C90.5048 58.3181 91.4628 58.2383 92.4218 58.2526L98.5595 58.2129Z" fill="white"/>
<path d="M107.497 73.4352L111.767 63.3962H115.204L108.927 77.3773H105.838L99.9688 63.3962H103.524L107.497 73.4352Z" fill="white"/>
<path d="M123.119 63.2071C124.116 63.1401 125.116 63.291 126.049 63.6494C126.982 64.0077 127.826 64.565 128.522 65.2824C129.737 66.7431 130.354 68.6088 130.25 70.5055C130.297 71.4527 130.149 72.3995 129.816 73.2874C129.483 74.1754 128.971 74.9859 128.313 75.6689C126.768 76.9162 124.836 77.5865 122.849 77.5648C120.863 77.543 118.946 76.8306 117.428 75.5498C116.214 74.1643 115.6 72.3535 115.72 70.5154C115.63 69.5262 115.76 68.5294 116.101 67.5963C116.441 66.6632 116.984 65.8171 117.69 65.1186C118.397 64.42 119.249 63.8864 120.186 63.5559C121.123 63.2254 122.121 63.1063 123.109 63.2071H123.119ZM122.921 65.8186C122.277 65.7684 121.633 65.9023 121.063 66.2048C120.493 66.5072 120.021 66.9657 119.703 67.5265C119.249 68.4514 119.037 69.4764 119.087 70.5055C119.025 71.5512 119.285 72.5907 119.832 73.4844C120.196 73.9649 120.675 74.3466 121.225 74.5946C121.775 74.8426 122.379 74.9491 122.98 74.9043C123.538 74.9391 124.096 74.8462 124.612 74.6328C125.128 74.4195 125.589 74.0912 125.96 73.6731C126.642 72.7264 126.969 71.5698 126.883 70.4062C126.946 69.2036 126.596 68.0157 125.89 67.04C125.524 66.6202 125.065 66.2914 124.549 66.0794C124.034 65.8675 123.476 65.7782 122.921 65.8186Z" fill="white"/>
<path d="M136.427 77.3674H133.17V58.2129H136.427V77.3674Z" fill="white"/>
<path d="M149.477 74.8055V63.3962H152.735V77.3674H145.972C145.154 77.3923 144.335 77.3357 143.528 77.1986C141.257 76.6293 140.135 74.832 140.162 71.8067V63.3962H143.419V71.9259C143.371 72.6115 143.508 73.2974 143.816 73.9118C144.095 74.2535 144.457 74.5173 144.868 74.6774C145.279 74.8375 145.724 74.8884 146.16 74.8254L149.477 74.8055Z" fill="white"/>
<path d="M157.701 63.3962V58.2129H160.958V63.3863H164.802V65.968H160.958V72.2933C160.941 72.7852 160.975 73.2776 161.057 73.7629C161.216 74.4844 161.935 74.8386 163.213 74.8253H164.802V77.3872H162.07C161.312 77.4187 160.554 77.3248 159.826 77.1092C159.399 76.9716 159.011 76.7326 158.696 76.4127C158.382 76.0928 158.149 75.7015 158.018 75.2722C157.781 74.4432 157.677 73.5818 157.71 72.7202V65.968H155.168V63.3962H157.701Z" fill="white"/>
<path d="M167.533 61.5V58.2231H170.791V61.5H167.533ZM167.533 63.3965H170.791V77.3677H167.533V63.3965Z" fill="white"/>
<path d="M181.12 63.2074C182.117 63.1404 183.117 63.2913 184.05 63.6497C184.983 64.0081 185.827 64.5653 186.523 65.2828C187.737 66.7434 188.354 68.6091 188.251 70.5058C188.297 71.453 188.149 72.3998 187.816 73.2878C187.483 74.1758 186.972 74.9862 186.314 75.6693C184.771 76.9128 182.844 77.5818 180.862 77.5618C178.88 77.5419 176.967 76.8343 175.449 75.56C174.235 74.1745 173.62 72.3638 173.741 70.5257C173.651 69.5365 173.78 68.5396 174.121 67.6066C174.462 66.6735 175.005 65.8274 175.711 65.1288C176.417 64.4303 177.269 63.8966 178.206 63.5662C179.143 63.2357 180.141 63.1166 181.13 63.2174L181.12 63.2074ZM180.921 65.819C180.278 65.7687 179.634 65.9026 179.064 66.2051C178.494 66.5075 178.022 66.966 177.703 67.5269C177.249 68.4517 177.037 69.4767 177.088 70.5058C177.026 71.5515 177.286 72.591 177.832 73.4847C178.198 73.9667 178.679 74.3493 179.23 74.5974C179.782 74.8455 180.387 74.9511 180.991 74.9047C181.548 74.9394 182.106 74.8465 182.623 74.6332C183.139 74.4198 183.6 74.0916 183.97 73.6734C184.652 72.7268 184.979 71.5701 184.894 70.4065C184.957 69.204 184.606 68.0161 183.901 67.0403C183.534 66.6206 183.075 66.2917 182.56 66.0798C182.044 65.8678 181.487 65.7785 180.931 65.819H180.921Z" fill="white"/>
<path d="M191.181 63.3974H198.133C199.193 63.3561 200.252 63.5179 201.251 63.8741C202.083 64.2197 202.758 64.8595 203.148 65.6713C203.598 66.6963 203.808 67.81 203.764 68.9283V77.3785H200.506V68.8985C200.582 68.048 200.326 67.2011 199.791 66.5352C199.227 66.0969 198.516 65.8909 197.805 65.9593H194.498V77.3785H191.24L191.181 63.3974Z" fill="white"/>
<defs>
<radialGradient id="paint0_radial_685_2660" cx="0" cy="0" r="1" gradientUnits="userSpaceOnUse" gradientTransform="translate(102 23.1738) scale(21.824 21.82)">
<stop stop-color="#10557C"/>
<stop offset="1" stop-color="#003869"/>
</radialGradient>
<radialGradient id="paint1_radial_685_2660" cx="0" cy="0" r="1" gradientUnits="userSpaceOnUse" gradientTransform="translate(102 20.7338) scale(18.0033 18)">
<stop stop-color="white"/>
<stop offset="1" stop-color="#45B0E0"/>
</radialGradient>
</defs>
</svg>
